<svg fill="none" height="32" viewBox="0 0 32 32" width="32" xmlns="http://www.w3.org/2000/svg"><g stroke="#71717a" stroke-linecap="round" stroke-linejoin="round" stroke-width="1.5"><path d="m11 24-4 3v-6h-4c-.53043 0-1.03914-.2107-1.41421-.5858-.37508-.3751-.58579-.8838-.58579-1.4142v-16c0-.53043.21071-1.03914.58579-1.41421.37507-.37508.88378-.58579 1.41421-.58579h22c.5304 0 1.0391.21071 1.4142.58579.3751.37507.5858.88378.5858 1.41421v5.97266"/><path d="m7 7h14"/><path d="m7 13h4"/><path d="m31 25h-4v6l-6-6h-6v-12h16z"/><path d="m27 17h-8"/><path d="m27 21h-8"/></g></svg>